<svg xmlns="http://www.w3.org/2000/svg" viewBox="0 0 1200 630">
  <rect width="1200" height="630" fill="#FDF8F4"/>
  <rect x="40" y="40" width="1120" height="550" rx="24" fill="white" opacity="0.6"/>
  <!-- Coeur -->
  <path d="M600 420s-120-90-157-159c-25-46-15-80 18-90 28-8 52 4 72 25 8 9 18 22 30 40 12-18 22-31 30-40 20-21 44-33 72-25 33 10 43 44 18 90C646 330 600 420 600 420z" fill="#D4A59A" opacity="0.15"/>
  <!-- Texte -->
  <text x="600" y="200" text-anchor="middle" font-family="serif" font-size="28" fill="#D4A59A" letter-spacing="8" text-transform="uppercase">LISTE DE NAISSANCE</text>
  <text x="600" y="300" text-anchor="middle" font-family="serif" font-size="72" font-weight="600" fill="#4A3728">Marine <tspan fill="#D4A59A" font-weight="400" font-size="56">&amp;</tspan> Yoann</text>
  <text x="600" y="370" text-anchor="middle" font-family="sans-serif" font-size="28" fill="#8B7355" letter-spacing="6">08.09.2026</text>
  <text x="600" y="480" text-anchor="middle" font-family="sans-serif" font-size="22" fill="#9B8E82">Merci de participer a l'arrivee de notre petit tresor</text>
  <!-- Ligne décorative -->
  <line x1="520" y1="415" x2="680" y2="415" stroke="#D4A59A" stroke-width="1" opacity="0.4"/>
</svg>
